<svg id="Layer_1" data-name="Layer 1" xmlns="http://www.w3.org/2000/svg" viewBox="0 0 100 100"><defs><style>.cls-1,.cls-3{opacity:0.65;}.cls-2{fill:#f6f6f6;}.cls-3{fill:none;stroke:#f6f6f6;stroke-linecap:round;stroke-linejoin:round;stroke-width:2.13px;}</style></defs><title>arr-right</title><g class="cls-1"><path class="cls-2" d="M1855,2766.76a12.89,12.89,0,0,1,12.87,12.87v70a12.89,12.89,0,0,1-12.87,12.87h-70a12.89,12.89,0,0,1-12.87-12.87v-70a12.89,12.89,0,0,1,12.87-12.87h70m0-2.13h-70a15,15,0,0,0-15,15v70a15,15,0,0,0,15,15h70a15,15,0,0,0,15-15v-70a15,15,0,0,0-15-15h0Z" transform="translate(-1770 -2764.64)"/></g><polyline class="cls-3" points="55.44 70.5 75.94 49.85 55.44 29.21 75.94 49.85 23.04 49.85"/></svg>