<svg id="Layer_1" data-name="Layer 1" xmlns="http://www.w3.org/2000/svg" viewBox="0 0 499.32 62.35"><defs><style>.cls-1{fill:#e3e3e3;}</style></defs><title>digital_earth_logo</title><path class="cls-1" d="M3140.82,106.78l15.07,13.68h-20.28a5.72,5.72,0,0,1-5.71-5.71h0V96.83a5.72,5.72,0,0,1,5.71-5.71h33V82.87h-33a14,14,0,0,0-14,14v17.92h0a14,14,0,0,0,14,14h41.76l-24.25-21.93h-12.3Z" transform="translate(-3064.51 -82.78)"/><rect class="cls-1" x="47.92" y="9.25" width="8.25" height="36.68"/><rect class="cls-1" x="47.91" width="8.25" height="8.29"/><rect class="cls-1" x="105.02" y="0.06" width="8.25" height="8.29"/><polygon class="cls-1" points="105 37.78 113.25 45.03 113.25 9.29 105 9.29 105 37.78"/><path class="cls-1" d="M3234.9,94.08l8.43,7.57h-8.43V94.08Zm-8.27-11.25v45.88h8.26V109.91h17.62l20.83,18.8h12.42l-50.87-45.87h-8.26Z" transform="translate(-3064.51 -82.78)"/><path class="cls-1" d="M3297.63,106.78l15,13.68h-20.28a5.72,5.72,0,0,1-5.71-5.71V82.82h-8.25v31.93h0a14,14,0,0,0,14,14h41.76l-24.23-21.93h-12.3Z" transform="translate(-3064.51 -82.78)"/><path class="cls-1" d="M3103.23,96.83v17.93a5.72,5.72,0,0,1-5.71,5.7h-24.76V91.12h24.76a5.72,5.72,0,0,1,5.71,5.71m8.25,0a14,14,0,0,0-14-14l-33,0v45.86h33a14,14,0,0,0,12.86-8.52,14.35,14.35,0,0,0,1.1-5.44h0V96.83Z" transform="translate(-3064.51 -82.78)"/><path class="cls-1" d="M3394.32,94l8.47,7.61h-8.47V94Zm-8.25-11.21v45.84h8.25V109.89H3412l20.79,18.77h12.42l-50.86-45.85h-8.25Z" transform="translate(-3064.51 -82.78)"/><polygon class="cls-1" points="452.38 0.05 452.38 45.94 460.64 45.94 460.64 45.03 460.65 45.04 460.65 26.7 490.18 26.7 490.18 45.94 498.43 45.94 498.43 0.1 490.18 0.1 490.18 18.45 460.65 18.45 460.65 0.1 460.64 0.1 460.64 0.05 452.38 0.05"/><path class="cls-1" d="M3346.67,83.92a14,14,0,0,0-8.52,12.86h0V114.7a14,14,0,0,0,14,14h33v-8.25h-33a5.72,5.72,0,0,1-5.71-5.71v-4.81h38.73v-8.25H3346.4V96.78h0a5.72,5.72,0,0,1,5.71-5.71h33V82.82h-33a13.87,13.87,0,0,0-5.43,1.1" transform="translate(-3064.51 -82.78)"/><path class="cls-1" d="M3455.25,101.54l-25.2.08V91.07h25.2a5.24,5.24,0,1,1,0,10.47m13.43-5.21a13.48,13.48,0,0,0-12.83-13.46c-0.37,0-34.06,0-34.06,0v23.65l8.25,7.4v-4l16.85-.05,11.81,10.61h0l9.11,8.25h12.41l-21.46-19.33a13.48,13.48,0,0,0,9.95-13" transform="translate(-3064.51 -82.78)"/><polygon class="cls-1" points="114.23 0.1 114.23 8.36 133.5 8.36 133.5 45.94 141.76 45.94 141.76 8.36 161.2 8.36 161.2 0.1 114.23 0.1"/><polygon class="cls-1" points="404.49 0.1 404.49 8.36 423.76 8.36 423.76 45.94 432.02 45.94 432.02 8.36 451.46 8.36 451.46 0.1 404.49 0.1"/><path class="cls-1" d="M3338.05,139c0-2.31,1.28-3.92,3.66-3.92s3.66,1.62,3.66,3.92-1.28,3.94-3.66,3.94-3.66-1.63-3.66-3.94m5.4,0c0-1.62-.46-2.16-1.75-2.16s-1.75.54-1.75,2.16,0.46,2.17,1.75,2.17,1.75-.56,1.75-2.17" transform="translate(-3064.51 -82.78)"/><polygon class="cls-1" points="288.92 54.2 286.29 54.2 286.29 60 284.38 60 284.38 54.2 281.75 54.2 281.75 52.44 288.92 52.44 288.92 54.2"/><polygon class="cls-1" points="294.76 56.23 297.36 60 295.07 60 293.18 57.11 292.02 57.11 292.02 60 290.11 60 290.11 52.44 292.02 52.44 292.02 55.35 293.18 55.35 295.07 52.44 297.36 52.44 294.76 56.23"/><path class="cls-1" d="M3370.81,139c0,2.16-1,3.94-3.26,3.94a2.4,2.4,0,0,1-2.14-1.07v3.27h-1.91v-9.91h1.91v0.91a2.42,2.42,0,0,1,2.14-1.06c2.28,0,3.26,1.76,3.26,3.92m-1.91,0c0-1.5-.53-2.16-1.75-2.16s-1.75.66-1.75,2.16,0.53,2.17,1.75,2.17,1.75-.66,1.75-2.17" transform="translate(-3064.51 -82.78)"/><path class="cls-1" d="M3378.33,140.15a2.42,2.42,0,0,1-2.76,2.63h-3.51v-7.56H3374v2.32h1.6a2.42,2.42,0,0,1,2.76,2.61m-1.91,0c0-.7-0.29-0.85-1.09-0.85H3374V141h1.37c0.79,0,1.09-.15,1.09-0.87m4.83,2.63h-1.91v-7.56h1.91v7.56Z" transform="translate(-3064.51 -82.78)"/><path class="cls-1" d="M3389.11,140.73c0,1.13-.62,2.06-2.58,2.06H3383v-7.56h3.57c1.76,0,2.36.85,2.36,2a1.47,1.47,0,0,1-1.62,1.54V139a1.63,1.63,0,0,1,1.84,1.75m-4.24-2.53h1.42c0.53,0,.69-0.16.69-0.6a0.55,0.55,0,0,0-.69-0.62h-1.42v1.22Zm2.33,2.1c0-.5-0.19-0.7-0.87-0.7h-1.47V141h1.47c0.68,0,.87-0.23.87-0.72" transform="translate(-3064.51 -82.78)"/><path class="cls-1" d="M3397.9,140.95v1.84H3395V142a2.22,2.22,0,0,1-2,.88,2.64,2.64,0,0,1,0-5.29,2.19,2.19,0,0,1,2,.88v-1.62h-3.82v-1.69h5.73v5.73h1Zm-2.86-.66c0-.59-0.38-1.06-1.38-1.06s-1.38.47-1.38,1.06,0.38,1.06,1.38,1.06,1.38-.47,1.38-1.06" transform="translate(-3064.51 -82.78)"/><path class="cls-1" d="M3405.74,135.22v7.56h-1.91v-2.47h-2.63v2.47h-1.91v-3h2.19v-0.23c-1.47-.16-2.19-0.47-2.19-2s0.72-2.28,3.52-2.28h2.92Zm-1.91,1.76h-1.45c-0.9,0-1.17.15-1.17,0.81s0.28,0.76,1.17.76h1.45V137Z" transform="translate(-3064.51 -82.78)"/><polygon class="cls-1" points="355.4 52.44 355.4 60 353.5 60 353.5 55.76 353.26 55.76 350.19 60 348.28 60 348.28 52.44 350.19 52.44 350.19 56.67 350.43 56.67 353.5 52.44 355.4 52.44"/><path class="cls-1" d="M3424.57,135.07a3.08,3.08,0,0,1,3.3,3.23H3426a1.27,1.27,0,0,0-1.37-1.47c-1.29,0-1.6.69-1.6,2.16s0.31,2.17,1.6,2.17a1.27,1.27,0,0,0,1.37-1.47h1.91a3.08,3.08,0,0,1-3.3,3.23c-2.35,0-3.48-1.63-3.48-3.94s1.13-3.92,3.48-3.92" transform="translate(-3064.51 -82.78)"/><polygon class="cls-1" points="369.5 56.23 372.1 60 369.81 60 367.92 57.11 366.76 57.11 366.76 60 364.85 60 364.85 52.44 366.76 52.44 366.76 55.35 367.92 55.35 369.81 52.44 372.1 52.44 369.5 56.23"/><path class="cls-1" d="M3444.82,135.22v9.91h-6.17v-1.76h4.26v-2a2.72,2.72,0,0,1-2,.81c-2.31,0-3.22-1.37-3.22-3.38v-3.6h1.91v3.52a1.67,1.67,0,1,0,3.35,0v-3.52h1.91Z" transform="translate(-3064.51 -82.78)"/><path class="cls-1" d="M3449.71,135.07a3.08,3.08,0,0,1,3.3,3.23h-1.91a1.27,1.27,0,0,0-1.37-1.47c-1.29,0-1.6.69-1.6,2.16s0.31,2.17,1.6,2.17a1.27,1.27,0,0,0,1.37-1.47H3453a3.08,3.08,0,0,1-3.3,3.23c-2.35,0-3.48-1.63-3.48-3.94s1.13-3.92,3.48-3.92" transform="translate(-3064.51 -82.78)"/><path class="cls-1" d="M3457.61,135.07a3.08,3.08,0,0,1,3.3,3.23H3459a1.27,1.27,0,0,0-1.37-1.47c-1.29,0-1.6.69-1.6,2.16s0.31,2.17,1.6,2.17a1.27,1.27,0,0,0,1.37-1.47h1.91a3.08,3.08,0,0,1-3.3,3.23c-2.35,0-3.48-1.63-3.48-3.94s1.13-3.92,3.48-3.92" transform="translate(-3064.51 -82.78)"/><polygon class="cls-1" points="404.24 54.2 401.62 54.2 401.62 60 399.71 60 399.71 54.2 397.08 54.2 397.08 52.44 404.24 52.44 404.24 54.2"/><path class="cls-1" d="M3476.09,140.73c0,1.13-.62,2.06-2.58,2.06h-3.57v-7.56h3.57c1.76,0,2.36.85,2.36,2a1.47,1.47,0,0,1-1.62,1.54V139a1.63,1.63,0,0,1,1.84,1.75m-4.24-2.53h1.42c0.53,0,.69-0.16.69-0.6a0.55,0.55,0,0,0-.69-0.62h-1.42v1.22Zm2.33,2.1c0-.5-0.19-0.7-0.87-0.7h-1.47V141h1.47c0.68,0,.87-0.23.87-0.72" transform="translate(-3064.51 -82.78)"/><path class="cls-1" d="M3477.14,139c0-2.31,1.28-3.92,3.66-3.92s3.66,1.62,3.66,3.92-1.28,3.94-3.66,3.94-3.66-1.63-3.66-3.94m5.4,0c0-1.62-.46-2.16-1.75-2.16s-1.75.54-1.75,2.16,0.46,2.17,1.75,2.17,1.75-.56,1.75-2.17" transform="translate(-3064.51 -82.78)"/><path class="cls-1" d="M3498.59,139.21c0,2.13-1.13,3.71-3.47,3.71-2.94,0-3.77-2-3.77-4.19v-2.2c0-1.82.63-3.74,4-3.74a6,6,0,0,0,2.26-.29v1.73a5,5,0,0,1-2.26.32c-1.92,0-2,.75-2,1.94a2.81,2.81,0,0,1,2.09-.91c2.11,0,3.25,1.51,3.25,3.63m-1.91,0c0-1.29-.46-1.91-1.7-1.91s-1.72.62-1.72,1.84,0.46,2,1.72,2,1.7-.63,1.7-1.91" transform="translate(-3064.51 -82.78)"/><path class="cls-1" d="M3507.22,135.22v9.91h-6.17v-1.76h4.26v-2a2.72,2.72,0,0,1-2,.81c-2.31,0-3.22-1.37-3.22-3.38v-3.6H3502v3.52a1.67,1.67,0,1,0,3.35,0v-3.52h1.91Z" transform="translate(-3064.51 -82.78)"/><path class="cls-1" d="M3518.41,141v4.11h-1.91v-2.35H3511v2.35h-1.91V141h0.93c1.28-1.64,1.28-2.47,1.28-5.76v0h5.76V141h1.32Zm-3.23,0v-4h-1.94a5.83,5.83,0,0,1-1.09,4h3Z" transform="translate(-3064.51 -82.78)"/><path class="cls-1" d="M3527,135.22v9.91h-6.17v-1.76h4.26v-2a2.72,2.72,0,0,1-2,.81c-2.31,0-3.22-1.37-3.22-3.38v-3.6h1.91v3.52a1.67,1.67,0,1,0,3.35,0v-3.52H3527Z" transform="translate(-3064.51 -82.78)"/><polygon class="cls-1" points="476.65 62.35 474.74 62.35 474.74 60 464.17 60 464.17 52.44 466.08 52.44 466.08 58.24 468.43 58.24 468.43 52.44 470.33 52.44 470.33 58.24 472.68 58.24 472.68 52.44 474.59 52.44 474.59 58.24 476.65 58.24 476.65 62.35"/><path class="cls-1" d="M3548.91,139.7h-4.67c0.13,0.93.59,1.47,2.06,1.47a8.51,8.51,0,0,0,2.11-.23v1.73a8.57,8.57,0,0,1-2.26.26c-3.39,0-3.88-2.39-3.88-3.92,0-2.25.91-3.94,3.35-3.94s3.29,1.57,3.29,3.77v0.85Zm-4.71-1.4h2.8a1.28,1.28,0,0,0-1.41-1.47,1.3,1.3,0,0,0-1.4,1.47" transform="translate(-3064.51 -82.78)"/><polygon class="cls-1" points="491.27 54.2 487.72 54.2 487.72 60 485.81 60 485.81 52.44 491.27 52.44 491.27 54.2"/><path class="cls-1" d="M3556.51,139c0-2.31,1.28-3.92,3.66-3.92s3.66,1.62,3.66,3.92-1.28,3.94-3.66,3.94-3.66-1.63-3.66-3.94m5.4,0c0-1.62-.46-2.16-1.75-2.16s-1.75.54-1.75,2.16,0.46,2.17,1.75,2.17,1.75-.56,1.75-2.17" transform="translate(-3064.51 -82.78)"/></svg>