<svg width="100" height="100" viewBox="0 0 100 100" fill="none" xmlns="http://www.w3.org/2000/svg">
<g opacity="0.75">
<g opacity="0.75">
<path opacity="0.75" d="M85 2.1C92.1 2.1 97.9 7.9 97.9 15V85C97.9 92.1 92.1 97.9 85 97.9H15C7.9 97.9 2.1 92.1 2.1 85V15C2.1 7.9 7.9 2.1 15 2.1H85ZM85 0H15C6.7 0 0 6.7 0 15V85C0 93.3 6.7 100 15 100H85C93.3 100 100 93.3 100 85V15C100 6.7 93.3 0 85 0Z" fill="#E3E3E3"/>
</g>
</g>
<path opacity="0.75" d="M73.5999 26.4L54.7 45.3V31.8V45.3H68.1999" stroke="#E3E3E3" stroke-width="2.126" stroke-miterlimit="10" stroke-linecap="round" stroke-linejoin="round"/>
<path opacity="0.75" d="M26.3999 73.5999L45.2999 54.7V68.1999V54.7H31.7999" stroke="#E3E3E3" stroke-width="2.126" stroke-miterlimit="10" stroke-linecap="round" stroke-linejoin="round"/>
</svg>
