<svg width="104" height="104" viewBox="0 0 104 104" fill="none" xmlns="http://www.w3.org/2000/svg">
<path opacity="0.75" d="M52 0C23.314 0 0 23.314 0 52C0 80.686 23.3352 104 52 104C80.686 104 104 80.6648 104 52C104 23.314 80.686 0 52 0ZM52 96.717C27.3483 96.717 7.28297 76.6517 7.28297 52C7.28297 27.3483 27.3483 7.28297 52 7.28297C76.6517 7.28297 96.717 27.3483 96.717 52C96.717 76.6517 76.6517 96.717 52 96.717Z" fill="#E3E3E3"/>
<path opacity="0.75" d="M79.8154 48.9423L42.4875 24.9913C41.3622 24.2694 39.9395 24.2269 38.7717 24.8639C37.6039 25.5009 36.882 26.7324 36.882 28.0489V75.9296C36.882 77.2673 37.6039 78.4776 38.7717 79.1146C39.3238 79.4119 39.9183 79.5605 40.5128 79.5605C41.1923 79.5605 41.8718 79.3694 42.4875 78.9872L79.8154 55.0574C80.8558 54.378 81.4928 53.2314 81.4928 51.9999C81.4716 50.7684 80.8558 49.6005 79.8154 48.9423ZM44.1437 69.2837V34.7161L71.0886 51.9999L44.1437 69.2837Z" fill="#E3E3E3"/>
</svg>
