<svg width="96" height="109" viewBox="0 0 96 109" fill="none" xmlns="http://www.w3.org/2000/svg">
<path d="M0.302246 50.7995C3.30225 50.0995 10.5022 50.9995 5.90225 54.6995V54.7995C7.10225 55.0995 7.60225 55.7995 7.60225 56.7995C8.00225 59.5995 2.70225 59.4995 0.302246 59.1995V50.7995ZM3.70225 54.0995C6.00225 53.7995 4.20225 52.0995 2.80225 52.6995V54.0995H3.70225ZM2.80225 57.2995C5.80225 57.8995 5.70225 55.1995 2.80225 55.6995V57.2995Z" fill="#E3E3E3"/>
<path d="M14.0022 55.8998L14.1022 54.5998H14.0022C13.6022 55.5998 11.2022 58.3998 10.6022 59.1998H9.0022V50.7998H11.6022C11.6022 51.6998 11.6022 54.6998 11.5022 55.4998H11.6022C12.0022 54.5998 14.4022 51.5998 15.0022 50.7998H16.6022V59.1998H14.0022V55.8998Z" fill="#E3E3E3"/>
<path d="M23.2022 56.0998H20.9022V59.1998H18.3022V50.7998H20.9022V53.7998H23.2022V50.7998H25.8022V59.1998H23.2022V56.0998Z" fill="#E3E3E3"/>
<path d="M28.5022 55.7995V54.0995C32.8022 54.1995 29.7022 51.6995 27.6022 53.1995L27.1022 51.2995C29.7022 49.3995 36.1022 51.4995 32.0022 54.6995V54.7995C36.8022 57.2995 30.2022 61.0995 27.1022 58.6995L27.6022 56.6995C29.9022 58.3995 33.5022 55.6995 28.5022 55.7995Z" fill="#E3E3E3"/>
<path d="M35.1022 51.2997C43.3022 48.3997 41.4022 53.4996 42.1022 59.1996H40.0022L39.6022 57.9996H39.5022C34.6022 62.7996 31.7022 52.8996 39.3022 53.9996C39.8022 51.8996 36.7022 52.6996 35.7022 53.0996L35.1022 51.2997ZM39.4022 56.4996V55.4996C35.8022 54.8996 37.4022 58.8996 39.4022 56.4996Z" fill="#E3E3E3"/>
<path d="M43.6022 50.7995C46.6022 50.0995 53.8022 50.9995 49.2022 54.6995V54.7995C50.4022 55.0995 50.9022 55.7995 50.9022 56.7995C51.3022 59.5995 46.0022 59.4995 43.6022 59.1995V50.7995ZM47.1022 54.0995C49.4022 53.7995 47.6022 52.0995 46.2022 52.6995V54.0995H47.1022ZM46.1022 57.2995C49.1022 57.8995 49.0022 55.1995 46.1022 55.6995V57.2995Z" fill="#E3E3E3"/>
<path d="M55.7022 50.5997C61.2022 50.1997 61.0022 59.8997 55.7022 59.4997C50.1022 59.7997 50.3022 50.0997 55.7022 50.5997ZM55.7022 57.2998C57.6022 57.6998 57.7022 52.3997 55.7022 52.6997C53.8022 52.2997 53.7022 57.4998 55.7022 57.2998Z" fill="#E3E3E3"/>
<path d="M70.0023 60.9998H68.1023L67.8023 59.1998H62.4023L62.1023 60.9998H60.2023V56.8998H61.2023C61.6023 56.3998 62.4023 54.6998 62.4023 50.7998H68.6023V56.8998H69.8023V60.9998H70.0023ZM66.2023 57.0998V52.9998H64.8023C64.7023 54.4998 64.3023 56.2998 63.9023 57.0998H66.2023Z" fill="#E3E3E3"/>
<path d="M7.40225 76.4996H6.50225L6.30225 74.4996H0.302246V66.5996H1.60225V73.3996H5.00225V66.5996H6.30225V73.3996H7.40225V76.4996Z" fill="#E3E3E3"/>
<path d="M14.7022 73.8995C10.3022 77.1995 6.60221 70.9995 9.40221 67.4995C11.7022 64.9995 16.1022 67.0995 14.9022 70.6995H9.80221C9.40221 73.2995 12.4022 74.4995 14.2022 72.9995L14.7022 73.8995ZM12.0022 67.4995C10.6022 67.4995 10.0022 68.1995 9.80221 69.6995H13.7022C13.7022 68.2995 13.3022 67.4995 12.0022 67.4995Z" fill="#E3E3E3"/>
<path d="M21.7022 70.9996H18.1022V74.4996H16.8022V66.5996H18.1022V69.8996H21.7022V66.5996H23.0022V74.4996H21.7022V70.9996Z" fill="#E3E3E3"/>
<path d="M30.5023 67.6996H28.0023V74.4996H26.7023V67.6996H24.2023V66.5996H30.4023V67.6996H30.5023Z" fill="#E3E3E3"/>
<path d="M32.0022 66.5996H32.9022L33.1022 67.4996H33.2022C39.8022 61.8996 40.8022 77.3996 33.3022 74.2996V77.5996H32.0022V66.5996ZM35.1022 67.4996C32.4022 67.2996 33.3022 71.5996 33.2022 73.0996C36.9022 75.7996 39.2022 67.8996 35.1022 67.4996Z" fill="#E3E3E3"/>
<path d="M5.80222 89.2995C-1.69778 93.6995 -2.09778 78.4995 5.60222 82.1995L5.20222 83.2995C-0.197779 80.0995 0.00221968 91.6995 5.30222 88.3995L5.80222 89.2995Z" fill="#E3E3E3"/>
<path d="M6.80217 85.8995C6.20217 80.3995 14.3022 80.5995 13.7022 85.8995C14.3022 91.3995 6.20217 91.1995 6.80217 85.8995ZM8.10217 85.8995C8.10217 87.2995 8.60217 88.9995 10.3022 88.8995C12.5022 89.1995 13.0022 85.4995 12.0022 83.6995C10.5022 81.7995 7.90217 82.9995 8.10217 85.8995Z" fill="#E3E3E3"/>
<path d="M15.7023 81.8996C18.5023 81.0996 24.1023 82.5996 19.9023 85.5996V85.6996C21.9023 85.7996 22.1023 88.4996 20.7023 89.3996C19.6023 90.0996 17.2023 89.9996 15.7023 89.7996V81.8996ZM18.5023 85.1996C21.8023 84.3996 19.3023 82.1996 17.0023 82.8996V85.1996H18.5023ZM16.9023 88.7996C21.4023 89.5996 21.4023 85.4996 16.9023 86.2996V88.7996Z" fill="#E3E3E3"/>
<path d="M23.5022 81.8994H24.4022L24.6022 82.7994H24.7022C31.3022 77.1994 32.3022 92.6994 24.8022 89.5994V92.8994H23.5022V81.8994ZM26.7022 82.7994C24.0022 82.5994 24.9022 86.8994 24.8022 88.3994C28.4022 91.0994 30.7022 83.1994 26.7022 82.7994Z" fill="#E3E3E3"/>
<path d="M37.8022 89.1998C33.4022 92.4998 29.7022 86.2998 32.5022 82.7998C34.8022 80.2998 39.2022 82.3998 38.0022 85.9998H32.9022C32.6022 88.5998 35.5022 89.7998 37.3022 88.2998L37.8022 89.1998ZM35.1022 82.7998C33.7022 82.7998 33.1022 83.4998 32.9022 84.9998H36.8022C36.8022 83.5998 36.4022 82.8998 35.1022 82.7998Z" fill="#E3E3E3"/>
<path d="M46.5022 85.0994L46.6022 83.5994H46.5022C46.2022 84.4994 44.5022 87.0994 44.0022 87.8994H43.6022C43.1022 87.0994 41.3022 84.4994 41.1022 83.5994H41.0022C41.2022 84.5994 41.1022 88.6994 41.1022 89.7994H40.0022V81.8994H41.2022C41.6022 82.5994 43.6022 85.6994 43.9022 86.3994C44.2022 85.7994 46.1022 82.5994 46.4022 81.8994H47.7022V89.7994H46.5022V85.0994Z" fill="#E3E3E3"/>
<path d="M55.9022 89.1998C51.5022 92.4998 47.8022 86.2998 50.6022 82.7998C52.9022 80.2998 57.3022 82.3998 56.1022 85.9998H51.0022C50.6022 88.5998 53.6022 89.7998 55.4022 88.2998L55.9022 89.1998ZM53.1022 82.7998C51.7022 82.7998 51.1022 83.4998 50.9022 84.9998H54.8022C54.9022 83.5998 54.5022 82.8998 53.1022 82.7998Z" fill="#E3E3E3"/>
<path d="M62.9022 86.2994H59.3022V89.7994H58.0022V81.8994H59.3022V85.1994H62.9022V81.8994H64.2022V89.7994H62.9022V86.2994Z" fill="#E3E3E3"/>
<path d="M71.3022 86.2994H67.7022V89.7994H66.4022V81.8994H67.7022V85.1994H71.3022V81.8994H72.6022V89.7994H71.3022V86.2994Z" fill="#E3E3E3"/>
<path d="M74.5022 85.8995C73.9022 80.3995 82.0022 80.5995 81.4022 85.8995C82.0022 91.3995 73.9022 91.1995 74.5022 85.8995ZM75.8022 85.8995C75.8022 87.2995 76.3022 88.9995 77.9022 88.8995C80.1022 89.1995 80.6023 85.4995 79.6023 83.6995C78.1023 81.7995 75.5022 82.9995 75.8022 85.8995Z" fill="#E3E3E3"/>
<path d="M87.9023 82.9994H84.5023V89.7994H83.2023V81.8994H87.8023V82.9994H87.9023Z" fill="#E3E3E3"/>
<path d="M88.1022 85.8995C87.5022 80.3995 95.6022 80.5995 95.0022 85.8995C95.6022 91.3995 87.5022 91.1995 88.1022 85.8995ZM89.5022 85.8995C89.5022 87.2995 90.0022 88.9995 91.6022 88.8995C93.8022 89.1995 94.3022 85.4995 93.3022 83.6995C91.8022 81.7995 89.2022 82.9995 89.5022 85.8995Z" fill="#E3E3E3"/>
<path d="M5.30222 100.5V99.4998C5.00222 100.2 1.60222 104.5 1.10222 105.2H0.402222V97.2998H1.70222C1.70222 97.9998 1.70222 102.5 1.70222 103.1H1.80222C2.10222 102.5 5.50222 97.9998 6.00222 97.2998H6.70222V105.2H5.40222V100.5H5.30222Z" fill="#E3E3E3"/>
<path d="M14.3022 104.6C6.80222 109 6.40222 93.7998 14.1022 97.4998L13.7022 98.5998C8.30222 95.3998 8.50222 107 13.8022 103.7L14.3022 104.6Z" fill="#E3E3E3"/>
<path d="M17.9022 101.6H17.2022V105.2H16.0022V97.2998H17.3022V100.9L18.0022 100.7L20.5022 97.2998H21.9022C21.5022 97.7998 19.3022 100.8 18.8022 101C19.5022 101.2 21.8022 104.6 22.3022 105.2H20.7022L17.9022 101.6Z" fill="#E3E3E3"/>
<path d="M26.3022 102.4L26.7022 103.9H26.8022C27.0022 102.9 28.4022 98.2998 28.7022 97.2998H30.0022C28.7022 99.4998 27.7022 109.6 24.0022 108.3L24.2022 107.2C25.4022 107.5 25.8022 106.4 26.1022 105.2L22.9022 97.2998H24.4022L26.3022 102.4Z" fill="#E3E3E3"/>
<path d="M36.6023 104.6C29.1023 109 28.7023 93.7998 36.4023 97.4998L36.0023 98.5998C30.6023 95.3998 30.8023 107 36.1023 103.7L36.6023 104.6Z" fill="#E3E3E3"/>
<path d="M43.5022 104.6C36.0022 109 35.6022 93.7998 43.3022 97.4998L42.9022 98.5998C37.5022 95.3998 37.7022 107 43.0022 103.7L43.5022 104.6Z" fill="#E3E3E3"/>
<path d="M50.7022 98.2997H48.2022V105.1H47.0022V98.2997H44.5022V97.1997H50.7022V98.2997Z" fill="#E3E3E3"/>
<path d="M52.1022 97.1994C54.9022 96.3994 60.5022 97.8994 56.3022 100.899V100.999C58.3022 101.099 58.5022 103.799 57.1022 104.699C56.0022 105.399 53.6022 105.299 52.1022 105.099V97.1994ZM54.9022 100.599C58.2022 99.7994 55.7022 97.5994 53.4022 98.2994V100.599H54.9022ZM53.4022 104.099C57.9022 104.899 57.9022 100.799 53.4022 101.599V104.099Z" fill="#E3E3E3"/>
<path d="M60.0022 97.7995C66.9022 94.6995 65.2022 100.799 65.7022 105.2H64.8022L64.5022 104.1H64.4022C59.2022 108.6 57.1022 99.1995 64.3022 100.699C65.0022 97.8995 62.2022 97.8995 60.4022 98.8995L60.0022 97.7995ZM62.2022 104.199C63.7022 104.299 64.5022 103 64.3022 101.6C62.2022 100.9 58.8022 103.199 62.2022 104.199Z" fill="#E3E3E3"/>
<path d="M38.8022 2.69989C37.9022 2.89989 38.8022 1.69989 38.3022 1.59989C37.9022 2.29989 35.0022 0.799885 34.7022 1.59989C34.1022 2.19989 34.3022 1.89989 32.5022 1.99989C31.2022 1.99989 30.5022 3.99989 30.2022 3.99989C28.0022 2.99989 28.3022 4.49989 26.9022 5.39989C24.9022 6.59989 25.1022 10.5999 25.1022 10.5999H26.8022C27.5022 6.89989 29.4022 10.0999 31.1022 7.69989C31.4022 7.19989 32.0022 7.49989 32.5022 7.19989C33.6022 5.59989 36.2022 7.69989 36.4022 5.69989C36.4022 5.69989 37.3022 5.59989 37.7022 5.29989C38.1022 4.99989 37.6022 4.59989 38.2022 4.19989C39.1022 3.39989 38.8022 2.69989 38.8022 2.69989Z" fill="#E3E3E3"/>
<path d="M13.1022 10.4998C13.2022 7.8998 16.8022 9.8998 17.8022 8.2998C18.5022 7.2998 18.7022 7.5998 19.8022 7.2998C21.5022 6.8998 21.4022 5.7998 21.8022 5.2998C23.4022 4.6998 22.9022 3.7998 23.7022 2.2998C24.6022 0.9998 22.6022 1.4998 22.3022 0.999801C21.5022 0.799801 21.0022 1.3998 20.0022 1.3998C19.3022 1.5998 19.0022 2.3998 18.1022 2.2998C17.7022 2.1998 17.4022 2.1998 16.8022 3.0998C14.9022 4.8998 9.30221 6.3998 11.1022 10.5998H13.1022V10.4998Z" fill="#E3E3E3"/>
<path d="M27.4022 13.7H27.8022V12C27.2022 12 24.9023 12 24.3022 12V13.6H24.7022V19.8L19.2022 16.5L13.5022 20V13.7H13.9022V12C13.3022 12 11.0022 12 10.4022 12V13.6H10.8022V21.5L0.302246 27.7V43.8H38.0022V27.8L27.4022 21.4V13.7Z" fill="#E3E3E3"/>
</svg>
