<svg id="Layer_1" data-name="Layer 1" xmlns="http://www.w3.org/2000/svg" viewBox="0 0 210 107.44"><defs><style>.cls-1{fill:#e3e3e3;}.cls-2{fill:none;}</style></defs><title>vinzavod210x107</title><path class="cls-1" d="M.3,49.91c3-.7,10.2.24,5.56,3.91v.07a2,2,0,0,1,1.7,2C8,58.7,2.65,58.63.3,58.27Zm3.43,3.34c2.29-.26.51-2-.92-1.43v1.43Zm-.92,3.11c2.95.6,2.85-2.12,0-1.61Z" transform="translate(0)"/><path class="cls-1" d="M14,55l.11-1.26h-.05a36.83,36.83,0,0,1-3.42,4.58H9v-8.4h2.55c0,.88,0,3.89-.11,4.71h.06a41,41,0,0,1,3.41-4.71h1.65v8.4H14Z" transform="translate(0)"/><path class="cls-1" d="M23.23,55.18H20.94v3.11H18.39v-8.4h2.55v3h2.29v-3h2.55v8.4H23.23Z" transform="translate(0)"/><path class="cls-1" d="M28.54,54.93V53.22c4.34.07,1.18-2.41-.94-.86l-.49-1.93c2.58-1.88,9,.18,4.89,3.36v.07c4.78,2.54-1.75,6.34-4.92,3.94l.5-2C29.93,57.5,33.49,54.76,28.54,54.93Z" transform="translate(0)"/><path class="cls-1" d="M35.11,50.45c8.17-2.9,6.33,2.24,7,7.86H40l-.35-1.16h-.08c-4.88,4.79-7.85-5.08-.2-4,.5-2.12-2.61-1.28-3.62-.91Zm4.28,5.15v-1C35.83,54,37.39,58,39.39,55.6Z" transform="translate(0)"/><path class="cls-1" d="M43.63,49.91c3-.7,10.19.24,5.56,3.91v.07a2,2,0,0,1,1.69,2c.44,2.78-4.91,2.71-7.25,2.35Zm3.42,3.34c2.29-.26.51-2-.92-1.43v1.43Zm-.92,3.11c3,.6,2.85-2.12,0-1.61Z" transform="translate(0)"/><path class="cls-1" d="M55.67,49.66c5.53-.38,5.31,9.33,0,8.87C50.12,58.9,50.34,49.19,55.67,49.66Zm0,6.72c1.88.37,2-4.86,0-4.57C53.83,51.42,53.65,56.61,55.67,56.38Z" transform="translate(0)"/><path class="cls-1" d="M70,60.11H68.13l-.25-1.82H62.52l-.25,1.82h-1.9V56h1c.35-.48,1.24-2.21,1.24-6.13h6.18V56H70Zm-3.77-4V52H64.83a12.62,12.62,0,0,1-.91,4.12Z" transform="translate(0)"/><path class="cls-1" d="M7.43,75.61H6.58l-.24-2h-6V65.7H1.6v6.8H5V65.7H6.29v6.8H7.43Z" transform="translate(0)"/><path class="cls-1" d="M14.67,73c-4.39,3.26-8.14-2.86-5.31-6.4a3.23,3.23,0,0,1,5.49,3.21H9.77a2.66,2.66,0,0,0,4.43,2.28ZM12,66.62c-1.38,0-2,.71-2.17,2.16h3.92C13.71,67.38,13.27,66.65,12,66.62Z" transform="translate(0)"/><path class="cls-1" d="M21.67,70.11H18.1v3.5H16.83V65.7H18.1V69h3.57V65.7h1.26v7.91H21.67Z" transform="translate(0)"/><path class="cls-1" d="M30.55,66.81H28.08v6.8H26.82v-6.8H24.35V65.7h6.2Z" transform="translate(0)"/><path class="cls-1" d="M32,65.7h.87l.24,1h.06c6.56-5.59,7.56,9.94.1,6.83v3.29H32Zm3.2.92c-2.73-.22-1.77,4.07-1.93,5.61C36.93,74.93,39.16,67,35.15,66.62Z" transform="translate(0)"/><path class="cls-1" d="M5.79,88.4c-7.5,4.41-7.88-10.8-.16-7.11l-.37,1.09c-5.37-3.16-5.23,8.41.11,5.06Z" transform="translate(0)"/><path class="cls-1" d="M6.83,85c-.57-5.54,7.53-5.34,6.92,0C14.32,90.51,6.22,90.3,6.83,85Zm1.31,0c0,1.36.53,3.07,2.15,3,2.19.29,2.67-3.44,1.66-5.17C10.48,80.93,7.88,82.1,8.14,85Z" transform="translate(0)"/><path class="cls-1" d="M15.66,81c2.81-.79,8.41.74,4.21,3.69v.06c2,.12,2.21,2.82.81,3.7-1.11.74-3.54.56-5,.43Zm2.82,3.32c3.26-.84.79-3-1.55-2.29v2.29Zm-1.55,3.51c4.46.85,4.51-3.25,0-2.54Z" transform="translate(0)"/><path class="cls-1" d="M23.47,81h.87l.24,1h.06c6.56-5.6,7.56,9.93.1,6.82v3.29H23.47Zm3.2.91c-2.73-.22-1.77,4.08-1.93,5.62C28.45,90.25,30.68,82.31,26.67,81.93Z" transform="translate(0)"/><path class="cls-1" d="M37.8,88.29c-4.4,3.25-8.15-2.86-5.32-6.4A3.23,3.23,0,0,1,38,85.1H32.9a2.65,2.65,0,0,0,4.42,2.27Zm-2.72-6.36c-1.38,0-2,.71-2.17,2.17h3.92C36.83,82.7,36.39,82,35.08,81.93Z" transform="translate(0)"/><path class="cls-1" d="M46.48,84.23l.1-1.51H46.5A40.71,40.71,0,0,1,44,87h-.45a29,29,0,0,1-2.51-4.32H41c.17,1,.12,5.13.12,6.2H40V81H41.2c.4.65,2.44,3.81,2.67,4.45h0c.25-.64,2.15-3.79,2.54-4.45h1.27v7.9H46.48Z" transform="translate(0)"/><path class="cls-1" d="M55.86,88.29c-4.4,3.25-8.15-2.86-5.31-6.4A3.23,3.23,0,0,1,56,85.1H51a2.65,2.65,0,0,0,4.42,2.27Zm-2.72-6.36c-1.38,0-2,.71-2.17,2.17h3.92C54.89,82.7,54.45,82,53.14,81.93Z" transform="translate(0)"/><path class="cls-1" d="M62.85,85.43H59.28v3.49H58V81h1.27v3.3h3.57V81h1.27v7.9H62.85Z" transform="translate(0)"/><path class="cls-1" d="M71.26,85.43H67.69v3.49H66.43V81h1.26v3.3h3.57V81h1.27v7.9H71.26Z" transform="translate(0)"/><path class="cls-1" d="M74.46,85c-.56-5.54,7.53-5.34,6.93,0C82,90.51,73.86,90.3,74.46,85Zm1.32,0c0,1.36.53,3.07,2.15,3,2.19.29,2.66-3.44,1.66-5.17C78.12,80.93,75.52,82.1,75.78,85Z" transform="translate(0)"/><path class="cls-1" d="M87.92,82.12H84.57v6.8H83.3V81h4.62Z" transform="translate(0)"/><path class="cls-1" d="M88.14,85c-.57-5.54,7.53-5.34,6.92,0C95.63,90.51,87.53,90.3,88.14,85Zm1.31,0c0,1.36.54,3.07,2.15,3,2.19.29,2.67-3.44,1.66-5.17C91.8,80.93,89.2,82.1,89.45,85Z" transform="translate(0)"/><path class="cls-1" d="M5.26,99.56l0-1h0c-.31.66-3.69,5-4.2,5.66H.33V96.33H1.6c0,.69,0,5.19-.05,5.76h.06c.28-.62,3.7-5.1,4.18-5.76h.74v7.91H5.26Z" transform="translate(0)"/><path class="cls-1" d="M14.31,103.71c-7.49,4.42-7.87-10.79-.16-7.11l-.36,1.09c-5.37-3.15-5.23,8.41.11,5.06Z" transform="translate(0)"/><path class="cls-1" d="M17.94,100.68h-.72v3.56H16V96.33h1.27V99.9l.68-.22,2.53-3.35H21.8c-.4.49-2.56,3.49-3.11,3.7.71.24,3,3.61,3.46,4.21H20.58Z" transform="translate(0)"/><path class="cls-1" d="M26.3,101.45l.44,1.52h.08c.15-1,1.57-5.55,1.89-6.64H30c-1.34,2.23-2.28,12.34-6,11l.22-1.09c1.16.34,1.63-.81,1.93-2l-3.18-7.91h1.45Z" transform="translate(0)"/><path class="cls-1" d="M36.63,103.71c-7.49,4.42-7.87-10.79-.16-7.11l-.36,1.09c-5.38-3.15-5.23,8.41.11,5.06Z" transform="translate(0)"/><path class="cls-1" d="M43.52,103.71c-7.49,4.42-7.87-10.79-.15-7.11L43,97.69c-5.37-3.15-5.23,8.41.11,5.06Z" transform="translate(0)"/><path class="cls-1" d="M50.72,97.44H48.26v6.8H47v-6.8H44.53V96.33h6.19Z" transform="translate(0)"/><path class="cls-1" d="M52.13,96.35c2.81-.79,8.4.74,4.2,3.68v.06c2,.12,2.22,2.83.81,3.7-1.11.75-3.53.57-5,.43Zm2.81,3.32c3.26-.85.8-3-1.55-2.3v2.3Zm-1.55,3.51c4.46.84,4.51-3.25,0-2.55Z" transform="translate(0)"/><path class="cls-1" d="M60,96.92c6.94-3.07,5.19,3,5.7,7.35h-.93l-.33-1.11h-.08c-5.21,4.5-7.32-4.86-.06-3.43C65,97,62.17,96.9,60.37,97.88Zm2.24,6.34a2,2,0,0,0,2.06-2.57C62.17,100,58.82,102.35,62.22,103.26Z" transform="translate(0)"/><path class="cls-1" d="M38.82,1.76c-.88.18,0-1-.5-1.12-.38.72-3.26-.84-3.61,0-.64.57-.37.34-2.19.37-1.28,0-2,2-2.28,2C28,2,28.29,3.48,27,4.38c-2,1.23-1.76,5.21-1.76,5.21h1.73c.7-3.7,2.62-.53,4.29-2.88.35-.55.86-.23,1.45-.5,1.14-1.56,3.68.55,3.88-1.45a2.6,2.6,0,0,0,1.27-.4c.44-.34-.09-.67.46-1.14A1.31,1.31,0,0,0,38.82,1.76Z" transform="translate(0)"/><path class="cls-1" d="M13.05,9.59C13.16,7,16.77,9,17.7,7.36c.69-1,.95-.74,2-1,1.71-.43,1.64-1.55,2-1.95,1.56-.58,1.11-1.49,1.94-3C24.59.08,22.61.6,22.33.05c-.79-.23-1.25.44-2.26.37-.72.24-1,1-1.88.86-.38-.07-.74-.05-1.27.82C15,3.85,9.44,5.43,11.17,9.59Z" transform="translate(0)"/><path class="cls-1" d="M27.37,12.76h.42V11.14H24.33v1.62h.42v6.17L19.3,15.64l-5.83,3.45V12.76h.42V11.14H10.43v1.62h.42v7.88L.31,26.89V43H38V26.89L27.37,20.5Z" transform="translate(0)"/><rect class="cls-2" width="210" height="107"/></svg>